<svg viewBox="0 0 64 64" xmlns="http://www.w3.org/2000/svg">
    <defs>
        <linearGradient id="ticketGradient" x1="0%" y1="0%" x2="100%" y2="100%">
            <stop offset="0%" stopColor="#818cf8" />
            <stop offset="100%" stopColor="#6366f1" />
        </linearGradient>
        <filter id="shadow" x="-20%" y="-20%" width="140%" height="140%">
            <feDropShadow dx="0" dy="2" stdDeviation="2" floodColor="#6366f1" floodOpacity="0.3"/>
        </filter>
    </defs>
    <!-- Ticket body -->
    <rect x="4" y="16" width="56" height="32" rx="8" fill="url(#ticketGradient)" filter="url(#shadow)" />

    <!-- Side perforations -->
    <circle cx="4" cy="32" r="4" fill="#f3f4f6" />
    <circle cx="60" cy="32" r="4" fill="#f3f4f6" />

    <!-- Inner ticket area -->
    <rect x="14" y="22" width="36" height="20" rx="4" fill="white" opacity="0.95" />

    <!-- Diamond/star accent -->
    <path d="M32 26l2 4h4l-3 2 1 4-4-2-4 2 1-4-3-2 4h4z" fill="#6366f1" />

    <!-- Decorative lines -->
    <rect x="18" y="28" width="28" height="1" fill="#6366f1" opacity="0.2" rx="0.5" />
    <rect x="20" y="36" width="24" height="1" fill="#6366f1" opacity="0.2" rx="0.5" />

    <!-- Corner accents -->
    <circle cx="8" cy="20" r="1.5" fill="white" opacity="0.4" />
    <circle cx="56" cy="20" r="1.5" fill="white" opacity="0.4" />
    <circle cx="8" cy="44" r="1.5" fill="white" opacity="0.4" />
    <circle cx="56" cy="44" r="1.5" fill="white" opacity="0.4" />
</svg>
